<mxfile host="app.diagrams.net" modified="2023-12-14T19:07:19.253Z" agent="Mozilla/5.0 (X11; Ubuntu; Linux x86_64; rv:120.0) Gecko/20100101 Firefox/120.0" etag="7b1IBgc4orM1926TuDst" version="22.1.8" type="github">
  <diagram name="Page-1" id="2YBvvXClWsGukQMizWep">
    <mxGraphModel dx="1088" dy="806" grid="1" gridSize="10" guides="1" tooltips="1" connect="1" arrows="1" fold="1" page="1" pageScale="1" pageWidth="850" pageHeight="1100" math="0" shadow="0">
      <root>
        <mxCell id="0" />
        <mxCell id="1" parent="0" />
        <mxCell id="WfkgKfP0pqJIfIbXY2FV-27" value="" style="whiteSpace=wrap;html=1;aspect=fixed;strokeColor=#330066;" vertex="1" parent="1">
          <mxGeometry x="16" y="11" width="758" height="758" as="geometry" />
        </mxCell>
        <mxCell id="WfkgKfP0pqJIfIbXY2FV-10" value="" style="strokeWidth=2;html=1;shape=mxgraph.flowchart.annotation_2;align=left;labelPosition=right;pointerEvents=1;fillColor=#000066;strokeColor=#000066;" vertex="1" parent="1">
          <mxGeometry x="182" y="240" width="80" height="360" as="geometry" />
        </mxCell>
        <mxCell id="WfkgKfP0pqJIfIbXY2FV-22" value="&lt;div align=&quot;center&quot;&gt;&lt;h1&gt;&lt;b&gt;&lt;font style=&quot;font-size: 18px;&quot; face=&quot;Comic Sans MS&quot;&gt;PROPUESTA DE DIAGRAMA DE FLUJO PARA SERVICIO DE REMESA&lt;/font&gt;&lt;/b&gt;&lt;/h1&gt;&lt;/div&gt;" style="text;html=1;align=center;verticalAlign=middle;resizable=0;points=[];autosize=1;strokeColor=none;fillColor=none;" vertex="1" parent="1">
          <mxGeometry x="41" y="24" width="710" height="70" as="geometry" />
        </mxCell>
        <mxCell id="WfkgKfP0pqJIfIbXY2FV-28" value="&lt;font face=&quot;Comic Sans MS&quot; style=&quot;font-size: 14px;&quot;&gt;BIENVENIDA&lt;/font&gt;" style="strokeWidth=2;html=1;shape=mxgraph.flowchart.start_1;whiteSpace=wrap;strokeColor=#000066;fillColor=#CCCCFF;" vertex="1" parent="1">
          <mxGeometry x="40" y="373.5" width="142" height="93" as="geometry" />
        </mxCell>
        <mxCell id="WfkgKfP0pqJIfIbXY2FV-31" value="&lt;font face=&quot;Comic Sans MS&quot; style=&quot;font-size: 14px;&quot;&gt;INICIO DE SESIÓN&lt;/font&gt;" style="rounded=1;whiteSpace=wrap;html=1;absoluteArcSize=1;arcSize=14;strokeWidth=2;strokeColor=#000066;fillColor=#CCCCFF;" vertex="1" parent="1">
          <mxGeometry x="262" y="200" width="178" height="80" as="geometry" />
        </mxCell>
        <mxCell id="WfkgKfP0pqJIfIbXY2FV-32" value="&lt;font style=&quot;font-size: 14px;&quot; face=&quot;Comic Sans MS&quot;&gt;REGISTRO&lt;/font&gt;" style="rounded=1;whiteSpace=wrap;html=1;absoluteArcSize=1;arcSize=14;strokeWidth=2;fillColor=#CCCCFF;strokeColor=#000066;" vertex="1" parent="1">
          <mxGeometry x="262" y="560" width="178" height="83" as="geometry" />
        </mxCell>
        <mxCell id="WfkgKfP0pqJIfIbXY2FV-37" value="&lt;font style=&quot;font-size: 11px;&quot; face=&quot;Comic Sans MS&quot;&gt;RECARGA DE SALDO&lt;br&gt;&lt;/font&gt;" style="rounded=1;whiteSpace=wrap;html=1;absoluteArcSize=1;arcSize=14;strokeWidth=2;strokeColor=#000066;fillColor=#CCCCFF;" vertex="1" parent="1">
          <mxGeometry x="500" y="140" width="160" height="60" as="geometry" />
        </mxCell>
        <mxCell id="WfkgKfP0pqJIfIbXY2FV-38" value="&lt;font style=&quot;font-size: 11px;&quot; face=&quot;Comic Sans MS&quot;&gt;ENVÍO DE FONDOS&lt;/font&gt;&lt;font size=&quot;3&quot; face=&quot;Comic Sans MS&quot;&gt;&lt;br&gt;&lt;/font&gt;" style="rounded=1;whiteSpace=wrap;html=1;absoluteArcSize=1;arcSize=14;strokeWidth=2;strokeColor=#000066;fillColor=#CCCCFF;" vertex="1" parent="1">
          <mxGeometry x="500" y="280" width="160" height="60" as="geometry" />
        </mxCell>
        <mxCell id="WfkgKfP0pqJIfIbXY2FV-39" value="" style="strokeWidth=2;html=1;shape=mxgraph.flowchart.annotation_2;align=left;labelPosition=right;pointerEvents=1;strokeColor=#000066;" vertex="1" parent="1">
          <mxGeometry x="440" y="170" width="60" height="140" as="geometry" />
        </mxCell>
        <mxCell id="WfkgKfP0pqJIfIbXY2FV-40" value="&lt;font style=&quot;font-size: 11px;&quot; face=&quot;Comic Sans MS&quot;&gt;DATOS PERSONALES&lt;br&gt;&lt;/font&gt;" style="rounded=1;whiteSpace=wrap;html=1;absoluteArcSize=1;arcSize=14;strokeWidth=2;strokeColor=#000066;fillColor=#CCCCFF;" vertex="1" parent="1">
          <mxGeometry x="500" y="570" width="160" height="60" as="geometry" />
        </mxCell>
        <mxCell id="WfkgKfP0pqJIfIbXY2FV-41" value="&lt;font style=&quot;font-size: 11px;&quot; face=&quot;Comic Sans MS&quot;&gt;CORREO / TELÉFONO / CONTRASEÑA&lt;/font&gt;&lt;font size=&quot;3&quot; face=&quot;Comic Sans MS&quot;&gt;&lt;br&gt;&lt;/font&gt;" style="rounded=1;whiteSpace=wrap;html=1;absoluteArcSize=1;arcSize=14;strokeWidth=2;strokeColor=#000066;fillColor=#CCCCFF;" vertex="1" parent="1">
          <mxGeometry x="500" y="490" width="160" height="60" as="geometry" />
        </mxCell>
        <mxCell id="WfkgKfP0pqJIfIbXY2FV-42" value="&lt;font style=&quot;font-size: 11px;&quot; face=&quot;Comic Sans MS&quot;&gt;RECAUDO SEGÚN PAÍS&lt;br&gt;&lt;/font&gt;" style="rounded=1;whiteSpace=wrap;html=1;absoluteArcSize=1;arcSize=14;strokeWidth=2;strokeColor=#000066;fillColor=#CCCCFF;" vertex="1" parent="1">
          <mxGeometry x="500" y="650" width="160" height="60" as="geometry" />
        </mxCell>
        <mxCell id="WfkgKfP0pqJIfIbXY2FV-43" value="" style="strokeWidth=2;html=1;shape=mxgraph.flowchart.annotation_2;align=left;labelPosition=right;pointerEvents=1;strokeColor=#000066;" vertex="1" parent="1">
          <mxGeometry x="440" y="520" width="60" height="160" as="geometry" />
        </mxCell>
        <mxCell id="WfkgKfP0pqJIfIbXY2FV-46" value="" style="line;strokeWidth=2;html=1;strokeColor=#000066;" vertex="1" parent="1">
          <mxGeometry x="440" y="595" width="60" height="10" as="geometry" />
        </mxCell>
      </root>
    </mxGraphModel>
  </diagram>
</mxfile>
